<svg width="192" height="192" viewBox="0 0 192 192" fill="none" xmlns="http://www.w3.org/2000/svg">
<g clip-path="url(#clip0)" filter="url(#filter0_d)">
<path d="M122.424 139.983C145.938 139.983 165 120.511 165 96.4915C165 72.4718 145.938 53 122.424 53C98.9101 53 79.8482 72.4718 79.8482 96.4915C79.8482 120.511 98.9101 139.983 122.424 139.983Z" fill="#F5898E"/>
<path d="M69.5759 139.983C93.0899 139.983 112.152 120.511 112.152 96.4915C112.152 72.4718 93.0899 53 69.5759 53C46.0619 53 27 72.4718 27 96.4915C27 120.511 46.0619 139.983 69.5759 139.983Z" fill="#5A2EAB"/>
<path d="M112.202 96.5768C111.784 82.7223 106.105 70.3864 95.9666 62.4525C90.9227 66.5236 86.8468 71.7087 84.0446 77.6187C81.2424 83.5286 79.7867 90.0101 79.7867 96.5768C79.7867 103.143 81.2424 109.625 84.0446 115.535C86.8468 121.445 90.9227 126.63 95.9666 130.701C101.209 126.814 105.434 121.667 108.265 115.715C111.097 109.763 112.449 103.19 112.202 96.5768V96.5768Z" fill="url(#paint0_linear)"/>
</g>
<defs>
<filter id="filter0_d" x="23" y="53" width="146" height="95" filterUnits="userSpaceOnUse" color-interpolation-filters="sRGB">
<feFlood flood-opacity="0" result="BackgroundImageFix"/>
<feColorMatrix in="SourceAlpha" type="matrix" values="0 0 0 0 0 0 0 0 0 0 0 0 0 0 0 0 0 0 127 0" result="hardAlpha"/>
<feOffset dy="4"/>
<feGaussianBlur stdDeviation="2"/>
<feComposite in2="hardAlpha" operator="out"/>
<feColorMatrix type="matrix" values="0 0 0 0 0 0 0 0 0 0 0 0 0 0 0 0 0 0 0.25 0"/>
<feBlend mode="normal" in2="BackgroundImageFix" result="effect1_dropShadow"/>
<feBlend mode="normal" in="SourceGraphic" in2="effect1_dropShadow" result="shape"/>
</filter>
<linearGradient id="paint0_linear" x1="81.7357" y1="71.2736" x2="111.495" y2="121.741" gradientUnits="userSpaceOnUse">
<stop offset="0.07" stop-color="#5A2EAB"/>
<stop offset="1" stop-color="#F5898E"/>
</linearGradient>
<clipPath id="clip0">
<rect width="138" height="87" fill="white" transform="translate(27 53)"/>
</clipPath>
</defs>
</svg>
