<svg width="63" height="63" viewBox="0 0 63 63" fill="none" xmlns="http://www.w3.org/2000/svg">
<rect width="63" height="63" rx="31.5" fill="white"/>
<g clip-path="url(#clip0)">
<path d="M38.2762 42.9953C44.7511 42.9953 50 37.6238 50 30.9976C50 24.3715 44.7511 19 38.2762 19C31.8014 19 26.5524 24.3715 26.5524 30.9976C26.5524 37.6238 31.8014 42.9953 38.2762 42.9953Z" fill="#F5898E"/>
<path d="M23.7238 42.9953C30.1987 42.9953 35.4476 37.6238 35.4476 30.9976C35.4476 24.3715 30.1987 19 23.7238 19C17.2489 19 12 24.3715 12 30.9976C12 37.6238 17.2489 42.9953 23.7238 42.9953Z" fill="#5A2EAB"/>
<path d="M35.4614 31.0212C35.3464 27.1993 33.7826 23.7962 30.9908 21.6076C29.6019 22.7307 28.4796 24.161 27.708 25.7914C26.9363 27.4217 26.5355 29.2097 26.5355 31.0212C26.5355 32.8327 26.9363 34.6207 27.708 36.251C28.4796 37.8813 29.6019 39.3117 30.9908 40.4348C32.4345 39.3625 33.5977 37.9425 34.3774 36.3006C35.1572 34.6587 35.5295 32.8454 35.4614 31.0212V31.0212Z" fill="url(#paint0_linear)"/>
</g>
<defs>
<linearGradient id="paint0_linear" x1="27.0722" y1="24.041" x2="35.2888" y2="37.95" gradientUnits="userSpaceOnUse">
<stop offset="0.07" stop-color="#5A2EAB"/>
<stop offset="0.93" stop-color="#F5898E"/>
</linearGradient>
<clipPath id="clip0">
<rect width="38" height="24" fill="white" transform="translate(12 19)"/>
</clipPath>
</defs>
</svg>
